<svg xmlns="http://www.w3.org/2000/svg" width="20.85" height="20" viewBox="0 0 20.85 20"><defs><style>.a{fill:#666;}</style></defs><g transform="translate(0 -10.433)"><g transform="translate(0 16.411)"><path class="a" d="M3.506,167.256H.7a.7.7,0,0,0-.7.7v12.62a.7.7,0,0,0,.7.7h2.8a.7.7,0,0,0,.7-.7v-12.62A.7.7,0,0,0,3.506,167.256Z" transform="translate(0 -167.256)"/></g><g transform="translate(4.983 10.433)"><g transform="translate(0 0)"><path class="a" d="M147.842,16.806c-.113-.019-5.4,0-5.4,0l.738-1.952c.51-1.348.18-3.406-1.234-4.138a2.492,2.492,0,0,0-1.622-.231,1.167,1.167,0,0,0-.715.519,2.747,2.747,0,0,0-.224.963,4.117,4.117,0,0,1-1.189,2.2c-1.089,1.028-4.47,4-4.47,4V29.031h11.685a2.058,2.058,0,0,0,1.832-3.037,2.019,2.019,0,0,0,.7-2.717,2.019,2.019,0,0,0,.7-2.717A2.053,2.053,0,0,0,147.842,16.806Z" transform="translate(-133.726 -10.433)"/></g></g></g></svg>