<svg xmlns="http://www.w3.org/2000/svg" height="42" viewBox="0 0 625 42">
  <g id="Group_33" data-name="Group 33" transform="translate(-80 -1029)">
    <rect id="Rectangle_6233" data-name="Rectangle 6233" width="625" height="42" rx="5" transform="translate(80 1029)" fill="#b42a2a" opacity="0"/>
    <g id="Group_8" data-name="Group 8" transform="translate(-211.506 780.241)">
      <ellipse id="Ellipse_4" data-name="Ellipse 4" cx="0.452" cy="18" rx="0.452" ry="18" transform="translate(315.525 251.759)" fill="#b42a2a"/>
      <ellipse id="Ellipse_5" data-name="Ellipse 5" cx="0.452" cy="18" rx="0.452" ry="18" transform="translate(387.582 251.759)" fill="#b42a2a"/>
      <path id="Path_3225" data-name="Path 3225" d="M348.167,273.216c0,8.289-.2,15.01-.452,15.01s-.452-6.72-.452-15.01.2-15.01.452-15.01S348.167,264.926,348.167,273.216Z" transform="translate(-29.891 -3.456)" fill="#b42a2a"/>
      <path id="Path_3226" data-name="Path 3226" d="M495.526,273.216c0,8.289-.2,15.01-.452,15.01s-.452-6.72-.452-15.01.2-15.01.452-15.01S495.526,264.926,495.526,273.216Z" transform="translate(-108.887 -3.456)" fill="#b42a2a"/>
      <path id="Path_3227" data-name="Path 3227" d="M503.491,273.216c0,8.289-.2,15.01-.452,15.01s-.452-6.72-.452-15.01.2-15.01.452-15.01S503.491,264.926,503.491,273.216Z" transform="translate(-113.156 -3.456)" fill="#b42a2a"/>
      <path id="Path_3228" data-name="Path 3228" d="M411.89,275.444c0,7.224-.2,13.081-.452,13.081s-.452-5.856-.452-13.081.2-13.081.452-13.081S411.89,268.219,411.89,275.444Z" transform="translate(-64.051 -5.684)" fill="#b42a2a"/>
      <path id="Path_3229" data-name="Path 3229" d="M356.133,277.672c0,6.159-.2,11.152-.452,11.152s-.452-4.993-.452-11.152.2-11.152.452-11.152S356.133,271.513,356.133,277.672Z" transform="translate(-34.16 -7.913)" fill="#b42a2a"/>
      <ellipse id="Ellipse_6" data-name="Ellipse 6" cx="0.452" cy="11.152" rx="0.452" ry="11.152" transform="translate(391.277 258.607)" fill="#b42a2a"/>
      <path id="Path_3230" data-name="Path 3230" d="M487.56,277.672c0,6.159-.2,11.152-.452,11.152s-.452-4.993-.452-11.152.2-11.152.452-11.152S487.56,271.513,487.56,277.672Z" transform="translate(-104.617 -7.913)" fill="#b42a2a"/>
      <path id="Path_3231" data-name="Path 3231" d="M547.3,277.672c0,6.159-.2,11.152-.452,11.152s-.452-4.993-.452-11.152.2-11.152.452-11.152S547.3,271.513,547.3,277.672Z" transform="translate(-136.642 -7.913)" fill="#b42a2a"/>
      <ellipse id="Ellipse_7" data-name="Ellipse 7" cx="0.452" cy="11.152" rx="0.452" ry="11.152" transform="translate(376.496 258.607)" fill="#b42a2a"/>
      <path id="Path_3232" data-name="Path 3232" d="M407.907,277.672c0,6.159-.2,11.152-.452,11.152S407,283.831,407,277.672s.2-11.152.452-11.152S407.907,271.513,407.907,277.672Z" transform="translate(-61.916 -7.913)" fill="#b42a2a"/>
      <path id="Path_3233" data-name="Path 3233" d="M415.872,277.672c0,6.159-.2,11.152-.452,11.152s-.452-4.993-.452-11.152.2-11.152.452-11.152S415.872,271.513,415.872,277.672Z" transform="translate(-66.186 -7.913)" fill="#b42a2a"/>
      <ellipse id="Ellipse_8" data-name="Ellipse 8" cx="0.452" cy="9.224" rx="0.452" ry="9.224" transform="translate(322.915 260.536)" fill="#b42a2a"/>
      <path id="Path_3234" data-name="Path 3234" d="M364.1,283.513c0,4.793-.2,8.678-.452,8.678s-.452-3.886-.452-8.678.2-8.679.452-8.679S364.1,278.72,364.1,283.513Z" transform="translate(-38.43 -13.753)" fill="#b42a2a"/>
      <path id="Path_3235" data-name="Path 3235" d="M515.439,283.513c0,4.793-.2,8.678-.452,8.678s-.452-3.886-.452-8.678.2-8.679.452-8.679S515.439,278.72,515.439,283.513Z" transform="translate(-119.562 -13.753)" fill="#b42a2a"/>
      <ellipse id="Ellipse_9" data-name="Ellipse 9" cx="0.452" cy="8.679" rx="0.452" ry="8.679" transform="translate(378.344 261.081)" fill="#b42a2a"/>
      <ellipse id="Ellipse_10" data-name="Ellipse 10" cx="0.452" cy="8.679" rx="0.452" ry="8.679" transform="translate(335.849 261.081)" fill="#b42a2a"/>
      <path id="Path_3236" data-name="Path 3236" d="M467.647,283.513c0,4.793-.2,8.678-.452,8.678s-.452-3.886-.452-8.678.2-8.679.452-8.679S467.647,278.72,467.647,283.513Z" transform="translate(-93.941 -13.753)" fill="#b42a2a"/>
      <ellipse id="Ellipse_11" data-name="Ellipse 11" cx="0.452" cy="6.75" rx="0.452" ry="6.75" transform="translate(326.61 263.009)" fill="#b42a2a"/>
      <ellipse id="Ellipse_12" data-name="Ellipse 12" cx="0.452" cy="6.75" rx="0.452" ry="6.75" transform="translate(332.153 263.009)" fill="#b42a2a"/>
      <ellipse id="Ellipse_13" data-name="Ellipse 13" cx="0.452" cy="6.75" rx="0.452" ry="6.75" transform="translate(334.001 263.009)" fill="#b42a2a"/>
      <path id="Path_3237" data-name="Path 3237" d="M391.977,285.741c0,3.728-.2,6.75-.452,6.75s-.452-3.022-.452-6.75.2-6.75.452-6.75S391.977,282.013,391.977,285.741Z" transform="translate(-53.376 -15.982)" fill="#b42a2a"/>
      <ellipse id="Ellipse_14" data-name="Ellipse 14" cx="0.452" cy="6.75" rx="0.452" ry="6.75" transform="translate(370.953 263.009)" fill="#b42a2a"/>
      <ellipse id="Ellipse_15" data-name="Ellipse 15" cx="0.452" cy="6.75" rx="0.452" ry="6.75" transform="translate(374.649 263.009)" fill="#b42a2a"/>
      <path id="Path_3238" data-name="Path 3238" d="M459.682,285.741c0,3.728-.2,6.75-.452,6.75s-.452-3.022-.452-6.75.2-6.75.452-6.75S459.682,282.013,459.682,285.741Z" transform="translate(-89.671 -15.982)" fill="#b42a2a"/>
      <ellipse id="Ellipse_16" data-name="Ellipse 16" cx="0.452" cy="6.75" rx="0.452" ry="6.75" transform="translate(407.906 263.009)" fill="#b42a2a"/>
      <ellipse id="Ellipse_17" data-name="Ellipse 17" cx="0.452" cy="6.75" rx="0.452" ry="6.75" transform="translate(343.239 263.009)" fill="#b42a2a"/>
      <ellipse id="Ellipse_18" data-name="Ellipse 18" cx="0.452" cy="6.75" rx="0.452" ry="6.75" transform="translate(350.63 263.009)" fill="#b42a2a"/>
      <path id="Path_3239" data-name="Path 3239" d="M443.751,285.741c0,3.728-.2,6.75-.452,6.75s-.452-3.022-.452-6.75.2-6.75.452-6.75S443.751,282.013,443.751,285.741Z" transform="translate(-81.131 -15.982)" fill="#b42a2a"/>
      <path id="Path_3240" data-name="Path 3240" d="M519.421,285.741c0,3.728-.2,6.75-.452,6.75s-.452-3.022-.452-6.75.2-6.75.452-6.75S519.421,282.013,519.421,285.741Z" transform="translate(-121.697 -15.982)" fill="#b42a2a"/>
      <path id="Path_3241" data-name="Path 3241" d="M372.063,287.97c0,2.663-.2,4.822-.452,4.822s-.452-2.159-.452-4.822.2-4.822.452-4.822S372.063,285.308,372.063,287.97Z" transform="translate(-42.701 -18.211)" fill="#b42a2a"/>
      <ellipse id="Ellipse_19" data-name="Ellipse 19" cx="0.452" cy="4.821" rx="0.452" ry="4.821" transform="translate(367.258 264.938)" fill="#b42a2a"/>
      <ellipse id="Ellipse_20" data-name="Ellipse 20" cx="0.452" cy="4.821" rx="0.452" ry="4.821" transform="translate(380.192 264.938)" fill="#b42a2a"/>
      <path id="Path_3242" data-name="Path 3242" d="M511.456,287.97c0,2.663-.2,4.822-.452,4.822s-.452-2.159-.452-4.822.2-4.822.452-4.822S511.456,285.308,511.456,287.97Z" transform="translate(-117.426 -18.211)" fill="#b42a2a"/>
      <ellipse id="Ellipse_21" data-name="Ellipse 21" cx="0.452" cy="4.821" rx="0.452" ry="4.821" transform="translate(330.306 264.938)" fill="#b42a2a"/>
      <ellipse id="Ellipse_22" data-name="Ellipse 22" cx="0.452" cy="4.821" rx="0.452" ry="4.821" transform="translate(339.544 264.938)" fill="#b42a2a"/>
      <path id="Path_3243" data-name="Path 3243" d="M423.838,287.97c0,2.663-.2,4.822-.452,4.822s-.452-2.159-.452-4.822.2-4.822.452-4.822S423.838,285.308,423.838,287.97Z" transform="translate(-70.456 -18.211)" fill="#b42a2a"/>
      <ellipse id="Ellipse_23" data-name="Ellipse 23" cx="0.452" cy="4.821" rx="0.452" ry="4.821" transform="translate(359.868 264.938)" fill="#b42a2a"/>
      <ellipse id="Ellipse_24" data-name="Ellipse 24" cx="0.452" cy="4.821" rx="0.452" ry="4.821" transform="translate(356.172 264.938)" fill="#b42a2a"/>
      <path id="Path_3244" data-name="Path 3244" d="M539.335,287.97c0,2.663-.2,4.822-.452,4.822s-.452-2.159-.452-4.822.2-4.822.452-4.822S539.335,285.308,539.335,287.97Z" transform="translate(-132.372 -18.211)" fill="#b42a2a"/>
      <ellipse id="Ellipse_25" data-name="Ellipse 25" cx="0.452" cy="4.821" rx="0.452" ry="4.821" transform="translate(402.363 264.938)" fill="#b42a2a"/>
      <ellipse id="Ellipse_26" data-name="Ellipse 26" cx="0.452" cy="4.821" rx="0.452" ry="4.821" transform="translate(411.601 264.938)" fill="#b42a2a"/>
      <path id="Path_3245" data-name="Path 3245" d="M339.3,273.216c0-8.29.2-15.01.452-15.01s.452,6.72.452,15.01-.2,15.01-.452,15.01S339.3,281.5,339.3,273.216Z" transform="translate(-25.62 -3.456)" fill="#b42a2a"/>
      <ellipse id="Ellipse_27" data-name="Ellipse 27" cx="0.452" cy="15.01" rx="0.452" ry="15.01" transform="translate(383.887 254.75)" fill="#b42a2a"/>
      <ellipse id="Ellipse_28" data-name="Ellipse 28" cx="0.452" cy="13.081" rx="0.452" ry="13.081" transform="translate(358.02 256.678)" fill="#b42a2a"/>
      <ellipse id="Ellipse_29" data-name="Ellipse 29" cx="0.452" cy="11.152" rx="0.452" ry="11.152" transform="translate(309.982 258.607)" fill="#b42a2a"/>
      <ellipse id="Ellipse_30" data-name="Ellipse 30" cx="0.452" cy="8.679" rx="0.452" ry="8.679" transform="translate(306.287 261.081)" fill="#b42a2a"/>
      <ellipse id="Ellipse_31" data-name="Ellipse 31" cx="0.452" cy="8.679" rx="0.452" ry="8.679" transform="translate(311.829 261.081)" fill="#b42a2a"/>
      <ellipse id="Ellipse_32" data-name="Ellipse 32" cx="0.452" cy="8.679" rx="0.452" ry="8.679" transform="translate(319.22 261.081)" fill="#b42a2a"/>
      <path id="Path_3246" data-name="Path 3246" d="M319.384,285.741c0-3.728.2-6.75.452-6.75s.452,3.022.452,6.75-.2,6.75-.452,6.75S319.384,289.469,319.384,285.741Z" transform="translate(-14.945 -15.982)" fill="#b42a2a"/>
      <ellipse id="Ellipse_33" data-name="Ellipse 33" cx="0.452" cy="6.75" rx="0.452" ry="6.75" transform="translate(308.134 263.009)" fill="#b42a2a"/>
      <ellipse id="Ellipse_34" data-name="Ellipse 34" cx="0.452" cy="6.75" rx="0.452" ry="6.75" transform="translate(295.201 263.009)" fill="#b42a2a"/>
      <ellipse id="Ellipse_35" data-name="Ellipse 35" cx="0.452" cy="4.821" rx="0.452" ry="4.821" transform="translate(302.591 264.938)" fill="#b42a2a"/>
      <path id="Path_3247" data-name="Path 3247" d="M303.453,287.97c0-2.663.2-4.822.452-4.822s.452,2.159.452,4.822-.2,4.822-.452,4.822S303.453,290.633,303.453,287.97Z" transform="translate(-6.405 -18.211)" fill="#b42a2a"/>
      <path id="Path_3248" data-name="Path 3248" d="M311.419,290.2c0-1.6.2-2.893.452-2.893s.452,1.3.452,2.893-.2,2.893-.452,2.893S311.419,291.8,311.419,290.2Z" transform="translate(-10.675 -20.439)" fill="#b42a2a"/>
      <path id="Path_3249" data-name="Path 3249" d="M295.488,290.2c0-1.6.2-2.893.452-2.893s.452,1.3.452,2.893-.2,2.893-.452,2.893S295.488,291.8,295.488,290.2Z" transform="translate(-2.135 -20.439)" fill="#b42a2a"/>
      <ellipse id="Ellipse_36" data-name="Ellipse 36" cx="0.452" cy="2.893" rx="0.452" ry="2.893" transform="translate(291.506 266.867)" fill="#b42a2a"/>
      <path id="Path_3250" data-name="Path 3250" d="M307.436,290.2c0-1.6.2-2.893.452-2.893s.452,1.3.452,2.893-.2,2.893-.452,2.893S307.436,291.8,307.436,290.2Z" transform="translate(-8.54 -20.439)" fill="#b42a2a"/>
      <path id="Path_3251" data-name="Path 3251" d="M399.037,290.2c0-1.6.2-2.893.452-2.893s.452,1.3.452,2.893-.2,2.893-.452,2.893S399.037,291.8,399.037,290.2Z" transform="translate(-57.646 -20.439)" fill="#b42a2a"/>
      <ellipse id="Ellipse_37" data-name="Ellipse 37" cx="0.452" cy="2.893" rx="0.452" ry="2.893" transform="translate(354.325 266.867)" fill="#b42a2a"/>
      <ellipse id="Ellipse_38" data-name="Ellipse 38" cx="0.452" cy="2.893" rx="0.452" ry="2.893" transform="translate(363.563 266.867)" fill="#b42a2a"/>
      <path id="Path_3252" data-name="Path 3252" d="M450.812,290.2c0-1.6.2-2.893.452-2.893s.452,1.3.452,2.893-.2,2.893-.452,2.893S450.812,291.8,450.812,290.2Z" transform="translate(-85.401 -20.439)" fill="#b42a2a"/>
      <ellipse id="Ellipse_39" data-name="Ellipse 39" cx="0.452" cy="2.893" rx="0.452" ry="2.893" transform="translate(398.668 266.867)" fill="#b42a2a"/>
      <path id="Path_3253" data-name="Path 3253" d="M526.482,290.2c0-1.6.2-2.893.452-2.893s.452,1.3.452,2.893-.2,2.893-.452,2.893S526.482,291.8,526.482,290.2Z" transform="translate(-125.967 -20.439)" fill="#b42a2a"/>
      <ellipse id="Ellipse_40" data-name="Ellipse 40" cx="0.452" cy="2.893" rx="0.452" ry="2.893" transform="translate(404.211 266.867)" fill="#b42a2a"/>
    </g>
    <g id="Group_9" data-name="Group 9" transform="translate(-90.506 780.241)">
      <ellipse id="Ellipse_4-2" data-name="Ellipse 4" cx="0.452" cy="18" rx="0.452" ry="18" transform="translate(315.525 251.759)" fill="#b42a2a"/>
      <ellipse id="Ellipse_5-2" data-name="Ellipse 5" cx="0.452" cy="18" rx="0.452" ry="18" transform="translate(387.582 251.759)" fill="#b42a2a"/>
      <path id="Path_3225-2" data-name="Path 3225" d="M348.167,273.216c0,8.289-.2,15.01-.452,15.01s-.452-6.72-.452-15.01.2-15.01.452-15.01S348.167,264.926,348.167,273.216Z" transform="translate(-29.891 -3.456)" fill="#b42a2a"/>
      <path id="Path_3226-2" data-name="Path 3226" d="M495.526,273.216c0,8.289-.2,15.01-.452,15.01s-.452-6.72-.452-15.01.2-15.01.452-15.01S495.526,264.926,495.526,273.216Z" transform="translate(-108.887 -3.456)" fill="#b42a2a"/>
      <path id="Path_3227-2" data-name="Path 3227" d="M503.491,273.216c0,8.289-.2,15.01-.452,15.01s-.452-6.72-.452-15.01.2-15.01.452-15.01S503.491,264.926,503.491,273.216Z" transform="translate(-113.156 -3.456)" fill="#b42a2a"/>
      <path id="Path_3228-2" data-name="Path 3228" d="M411.89,275.444c0,7.224-.2,13.081-.452,13.081s-.452-5.856-.452-13.081.2-13.081.452-13.081S411.89,268.219,411.89,275.444Z" transform="translate(-64.051 -5.684)" fill="#b42a2a"/>
      <path id="Path_3229-2" data-name="Path 3229" d="M356.133,277.672c0,6.159-.2,11.152-.452,11.152s-.452-4.993-.452-11.152.2-11.152.452-11.152S356.133,271.513,356.133,277.672Z" transform="translate(-34.16 -7.913)" fill="#b42a2a"/>
      <ellipse id="Ellipse_6-2" data-name="Ellipse 6" cx="0.452" cy="11.152" rx="0.452" ry="11.152" transform="translate(391.277 258.607)" fill="#b42a2a"/>
      <path id="Path_3230-2" data-name="Path 3230" d="M487.56,277.672c0,6.159-.2,11.152-.452,11.152s-.452-4.993-.452-11.152.2-11.152.452-11.152S487.56,271.513,487.56,277.672Z" transform="translate(-104.617 -7.913)" fill="#b42a2a"/>
      <path id="Path_3231-2" data-name="Path 3231" d="M547.3,277.672c0,6.159-.2,11.152-.452,11.152s-.452-4.993-.452-11.152.2-11.152.452-11.152S547.3,271.513,547.3,277.672Z" transform="translate(-136.642 -7.913)" fill="#b42a2a"/>
      <ellipse id="Ellipse_7-2" data-name="Ellipse 7" cx="0.452" cy="11.152" rx="0.452" ry="11.152" transform="translate(376.496 258.607)" fill="#b42a2a"/>
      <path id="Path_3232-2" data-name="Path 3232" d="M407.907,277.672c0,6.159-.2,11.152-.452,11.152S407,283.831,407,277.672s.2-11.152.452-11.152S407.907,271.513,407.907,277.672Z" transform="translate(-61.916 -7.913)" fill="#b42a2a"/>
      <path id="Path_3233-2" data-name="Path 3233" d="M415.872,277.672c0,6.159-.2,11.152-.452,11.152s-.452-4.993-.452-11.152.2-11.152.452-11.152S415.872,271.513,415.872,277.672Z" transform="translate(-66.186 -7.913)" fill="#b42a2a"/>
      <ellipse id="Ellipse_8-2" data-name="Ellipse 8" cx="0.452" cy="9.224" rx="0.452" ry="9.224" transform="translate(322.915 260.536)" fill="#b42a2a"/>
      <path id="Path_3234-2" data-name="Path 3234" d="M364.1,283.513c0,4.793-.2,8.678-.452,8.678s-.452-3.886-.452-8.678.2-8.679.452-8.679S364.1,278.72,364.1,283.513Z" transform="translate(-38.43 -13.753)" fill="#b42a2a"/>
      <path id="Path_3235-2" data-name="Path 3235" d="M515.439,283.513c0,4.793-.2,8.678-.452,8.678s-.452-3.886-.452-8.678.2-8.679.452-8.679S515.439,278.72,515.439,283.513Z" transform="translate(-119.562 -13.753)" fill="#b42a2a"/>
      <ellipse id="Ellipse_9-2" data-name="Ellipse 9" cx="0.452" cy="8.679" rx="0.452" ry="8.679" transform="translate(378.344 261.081)" fill="#b42a2a"/>
      <ellipse id="Ellipse_10-2" data-name="Ellipse 10" cx="0.452" cy="8.679" rx="0.452" ry="8.679" transform="translate(335.849 261.081)" fill="#b42a2a"/>
      <path id="Path_3236-2" data-name="Path 3236" d="M467.647,283.513c0,4.793-.2,8.678-.452,8.678s-.452-3.886-.452-8.678.2-8.679.452-8.679S467.647,278.72,467.647,283.513Z" transform="translate(-93.941 -13.753)" fill="#b42a2a"/>
      <ellipse id="Ellipse_11-2" data-name="Ellipse 11" cx="0.452" cy="6.75" rx="0.452" ry="6.75" transform="translate(326.61 263.009)" fill="#b42a2a"/>
      <ellipse id="Ellipse_12-2" data-name="Ellipse 12" cx="0.452" cy="6.75" rx="0.452" ry="6.75" transform="translate(332.153 263.009)" fill="#b42a2a"/>
      <ellipse id="Ellipse_13-2" data-name="Ellipse 13" cx="0.452" cy="6.75" rx="0.452" ry="6.75" transform="translate(334.001 263.009)" fill="#b42a2a"/>
      <path id="Path_3237-2" data-name="Path 3237" d="M391.977,285.741c0,3.728-.2,6.75-.452,6.75s-.452-3.022-.452-6.75.2-6.75.452-6.75S391.977,282.013,391.977,285.741Z" transform="translate(-53.376 -15.982)" fill="#b42a2a"/>
      <ellipse id="Ellipse_14-2" data-name="Ellipse 14" cx="0.452" cy="6.75" rx="0.452" ry="6.75" transform="translate(370.953 263.009)" fill="#b42a2a"/>
      <ellipse id="Ellipse_15-2" data-name="Ellipse 15" cx="0.452" cy="6.75" rx="0.452" ry="6.75" transform="translate(374.649 263.009)" fill="#b42a2a"/>
      <path id="Path_3238-2" data-name="Path 3238" d="M459.682,285.741c0,3.728-.2,6.75-.452,6.75s-.452-3.022-.452-6.75.2-6.75.452-6.75S459.682,282.013,459.682,285.741Z" transform="translate(-89.671 -15.982)" fill="#b42a2a"/>
      <ellipse id="Ellipse_16-2" data-name="Ellipse 16" cx="0.452" cy="6.75" rx="0.452" ry="6.75" transform="translate(407.906 263.009)" fill="#b42a2a"/>
      <ellipse id="Ellipse_17-2" data-name="Ellipse 17" cx="0.452" cy="6.75" rx="0.452" ry="6.75" transform="translate(343.239 263.009)" fill="#b42a2a"/>
      <ellipse id="Ellipse_18-2" data-name="Ellipse 18" cx="0.452" cy="6.75" rx="0.452" ry="6.75" transform="translate(350.63 263.009)" fill="#b42a2a"/>
      <path id="Path_3239-2" data-name="Path 3239" d="M443.751,285.741c0,3.728-.2,6.75-.452,6.75s-.452-3.022-.452-6.75.2-6.75.452-6.75S443.751,282.013,443.751,285.741Z" transform="translate(-81.131 -15.982)" fill="#b42a2a"/>
      <path id="Path_3240-2" data-name="Path 3240" d="M519.421,285.741c0,3.728-.2,6.75-.452,6.75s-.452-3.022-.452-6.75.2-6.75.452-6.75S519.421,282.013,519.421,285.741Z" transform="translate(-121.697 -15.982)" fill="#b42a2a"/>
      <path id="Path_3241-2" data-name="Path 3241" d="M372.063,287.97c0,2.663-.2,4.822-.452,4.822s-.452-2.159-.452-4.822.2-4.822.452-4.822S372.063,285.308,372.063,287.97Z" transform="translate(-42.701 -18.211)" fill="#b42a2a"/>
      <ellipse id="Ellipse_19-2" data-name="Ellipse 19" cx="0.452" cy="4.821" rx="0.452" ry="4.821" transform="translate(367.258 264.938)" fill="#b42a2a"/>
      <ellipse id="Ellipse_20-2" data-name="Ellipse 20" cx="0.452" cy="4.821" rx="0.452" ry="4.821" transform="translate(380.192 264.938)" fill="#b42a2a"/>
      <path id="Path_3242-2" data-name="Path 3242" d="M511.456,287.97c0,2.663-.2,4.822-.452,4.822s-.452-2.159-.452-4.822.2-4.822.452-4.822S511.456,285.308,511.456,287.97Z" transform="translate(-117.426 -18.211)" fill="#b42a2a"/>
      <ellipse id="Ellipse_21-2" data-name="Ellipse 21" cx="0.452" cy="4.821" rx="0.452" ry="4.821" transform="translate(330.306 264.938)" fill="#b42a2a"/>
      <ellipse id="Ellipse_22-2" data-name="Ellipse 22" cx="0.452" cy="4.821" rx="0.452" ry="4.821" transform="translate(339.544 264.938)" fill="#b42a2a"/>
      <path id="Path_3243-2" data-name="Path 3243" d="M423.838,287.97c0,2.663-.2,4.822-.452,4.822s-.452-2.159-.452-4.822.2-4.822.452-4.822S423.838,285.308,423.838,287.97Z" transform="translate(-70.456 -18.211)" fill="#b42a2a"/>
      <ellipse id="Ellipse_23-2" data-name="Ellipse 23" cx="0.452" cy="4.821" rx="0.452" ry="4.821" transform="translate(359.868 264.938)" fill="#b42a2a"/>
      <ellipse id="Ellipse_24-2" data-name="Ellipse 24" cx="0.452" cy="4.821" rx="0.452" ry="4.821" transform="translate(356.172 264.938)" fill="#b42a2a"/>
      <path id="Path_3244-2" data-name="Path 3244" d="M539.335,287.97c0,2.663-.2,4.822-.452,4.822s-.452-2.159-.452-4.822.2-4.822.452-4.822S539.335,285.308,539.335,287.97Z" transform="translate(-132.372 -18.211)" fill="#b42a2a"/>
      <ellipse id="Ellipse_25-2" data-name="Ellipse 25" cx="0.452" cy="4.821" rx="0.452" ry="4.821" transform="translate(402.363 264.938)" fill="#b42a2a"/>
      <ellipse id="Ellipse_26-2" data-name="Ellipse 26" cx="0.452" cy="4.821" rx="0.452" ry="4.821" transform="translate(411.601 264.938)" fill="#b42a2a"/>
      <path id="Path_3245-2" data-name="Path 3245" d="M339.3,273.216c0-8.29.2-15.01.452-15.01s.452,6.72.452,15.01-.2,15.01-.452,15.01S339.3,281.5,339.3,273.216Z" transform="translate(-25.62 -3.456)" fill="#b42a2a"/>
      <ellipse id="Ellipse_27-2" data-name="Ellipse 27" cx="0.452" cy="15.01" rx="0.452" ry="15.01" transform="translate(383.887 254.75)" fill="#b42a2a"/>
      <ellipse id="Ellipse_28-2" data-name="Ellipse 28" cx="0.452" cy="13.081" rx="0.452" ry="13.081" transform="translate(358.02 256.678)" fill="#b42a2a"/>
      <ellipse id="Ellipse_29-2" data-name="Ellipse 29" cx="0.452" cy="11.152" rx="0.452" ry="11.152" transform="translate(309.982 258.607)" fill="#b42a2a"/>
      <ellipse id="Ellipse_30-2" data-name="Ellipse 30" cx="0.452" cy="8.679" rx="0.452" ry="8.679" transform="translate(306.287 261.081)" fill="#b42a2a"/>
      <ellipse id="Ellipse_31-2" data-name="Ellipse 31" cx="0.452" cy="8.679" rx="0.452" ry="8.679" transform="translate(311.829 261.081)" fill="#b42a2a"/>
      <ellipse id="Ellipse_32-2" data-name="Ellipse 32" cx="0.452" cy="8.679" rx="0.452" ry="8.679" transform="translate(319.22 261.081)" fill="#b42a2a"/>
      <path id="Path_3246-2" data-name="Path 3246" d="M319.384,285.741c0-3.728.2-6.75.452-6.75s.452,3.022.452,6.75-.2,6.75-.452,6.75S319.384,289.469,319.384,285.741Z" transform="translate(-14.945 -15.982)" fill="#b42a2a"/>
      <ellipse id="Ellipse_33-2" data-name="Ellipse 33" cx="0.452" cy="6.75" rx="0.452" ry="6.75" transform="translate(308.134 263.009)" fill="#b42a2a"/>
      <ellipse id="Ellipse_34-2" data-name="Ellipse 34" cx="0.452" cy="6.75" rx="0.452" ry="6.75" transform="translate(295.201 263.009)" fill="#b42a2a"/>
      <ellipse id="Ellipse_35-2" data-name="Ellipse 35" cx="0.452" cy="4.821" rx="0.452" ry="4.821" transform="translate(302.591 264.938)" fill="#b42a2a"/>
      <path id="Path_3247-2" data-name="Path 3247" d="M303.453,287.97c0-2.663.2-4.822.452-4.822s.452,2.159.452,4.822-.2,4.822-.452,4.822S303.453,290.633,303.453,287.97Z" transform="translate(-6.405 -18.211)" fill="#b42a2a"/>
      <path id="Path_3248-2" data-name="Path 3248" d="M311.419,290.2c0-1.6.2-2.893.452-2.893s.452,1.3.452,2.893-.2,2.893-.452,2.893S311.419,291.8,311.419,290.2Z" transform="translate(-10.675 -20.439)" fill="#b42a2a"/>
      <path id="Path_3249-2" data-name="Path 3249" d="M295.488,290.2c0-1.6.2-2.893.452-2.893s.452,1.3.452,2.893-.2,2.893-.452,2.893S295.488,291.8,295.488,290.2Z" transform="translate(-2.135 -20.439)" fill="#b42a2a"/>
      <ellipse id="Ellipse_36-2" data-name="Ellipse 36" cx="0.452" cy="2.893" rx="0.452" ry="2.893" transform="translate(291.506 266.867)" fill="#b42a2a"/>
      <path id="Path_3250-2" data-name="Path 3250" d="M307.436,290.2c0-1.6.2-2.893.452-2.893s.452,1.3.452,2.893-.2,2.893-.452,2.893S307.436,291.8,307.436,290.2Z" transform="translate(-8.54 -20.439)" fill="#b42a2a"/>
      <path id="Path_3251-2" data-name="Path 3251" d="M399.037,290.2c0-1.6.2-2.893.452-2.893s.452,1.3.452,2.893-.2,2.893-.452,2.893S399.037,291.8,399.037,290.2Z" transform="translate(-57.646 -20.439)" fill="#b42a2a"/>
      <ellipse id="Ellipse_37-2" data-name="Ellipse 37" cx="0.452" cy="2.893" rx="0.452" ry="2.893" transform="translate(354.325 266.867)" fill="#b42a2a"/>
      <ellipse id="Ellipse_38-2" data-name="Ellipse 38" cx="0.452" cy="2.893" rx="0.452" ry="2.893" transform="translate(363.563 266.867)" fill="#b42a2a"/>
      <path id="Path_3252-2" data-name="Path 3252" d="M450.812,290.2c0-1.6.2-2.893.452-2.893s.452,1.3.452,2.893-.2,2.893-.452,2.893S450.812,291.8,450.812,290.2Z" transform="translate(-85.401 -20.439)" fill="#b42a2a"/>
      <ellipse id="Ellipse_39-2" data-name="Ellipse 39" cx="0.452" cy="2.893" rx="0.452" ry="2.893" transform="translate(398.668 266.867)" fill="#b42a2a"/>
      <path id="Path_3253-2" data-name="Path 3253" d="M526.482,290.2c0-1.6.2-2.893.452-2.893s.452,1.3.452,2.893-.2,2.893-.452,2.893S526.482,291.8,526.482,290.2Z" transform="translate(-125.967 -20.439)" fill="#b42a2a"/>
      <ellipse id="Ellipse_40-2" data-name="Ellipse 40" cx="0.452" cy="2.893" rx="0.452" ry="2.893" transform="translate(404.211 266.867)" fill="#b42a2a"/>
    </g>
    <g id="Group_10" data-name="Group 10" transform="translate(30.494 780.241)">
      <ellipse id="Ellipse_4-3" data-name="Ellipse 4" cx="0.452" cy="18" rx="0.452" ry="18" transform="translate(315.525 251.759)" fill="#b42a2a"/>
      <ellipse id="Ellipse_5-3" data-name="Ellipse 5" cx="0.452" cy="18" rx="0.452" ry="18" transform="translate(387.582 251.759)" fill="#b42a2a"/>
      <path id="Path_3225-3" data-name="Path 3225" d="M348.167,273.216c0,8.289-.2,15.01-.452,15.01s-.452-6.72-.452-15.01.2-15.01.452-15.01S348.167,264.926,348.167,273.216Z" transform="translate(-29.891 -3.456)" fill="#b42a2a"/>
      <path id="Path_3226-3" data-name="Path 3226" d="M495.526,273.216c0,8.289-.2,15.01-.452,15.01s-.452-6.72-.452-15.01.2-15.01.452-15.01S495.526,264.926,495.526,273.216Z" transform="translate(-108.887 -3.456)" fill="#b42a2a"/>
      <path id="Path_3227-3" data-name="Path 3227" d="M503.491,273.216c0,8.289-.2,15.01-.452,15.01s-.452-6.72-.452-15.01.2-15.01.452-15.01S503.491,264.926,503.491,273.216Z" transform="translate(-113.156 -3.456)" fill="#b42a2a"/>
      <path id="Path_3228-3" data-name="Path 3228" d="M411.89,275.444c0,7.224-.2,13.081-.452,13.081s-.452-5.856-.452-13.081.2-13.081.452-13.081S411.89,268.219,411.89,275.444Z" transform="translate(-64.051 -5.684)" fill="#b42a2a"/>
      <path id="Path_3229-3" data-name="Path 3229" d="M356.133,277.672c0,6.159-.2,11.152-.452,11.152s-.452-4.993-.452-11.152.2-11.152.452-11.152S356.133,271.513,356.133,277.672Z" transform="translate(-34.16 -7.913)" fill="#b42a2a"/>
      <ellipse id="Ellipse_6-3" data-name="Ellipse 6" cx="0.452" cy="11.152" rx="0.452" ry="11.152" transform="translate(391.277 258.607)" fill="#b42a2a"/>
      <path id="Path_3230-3" data-name="Path 3230" d="M487.56,277.672c0,6.159-.2,11.152-.452,11.152s-.452-4.993-.452-11.152.2-11.152.452-11.152S487.56,271.513,487.56,277.672Z" transform="translate(-104.617 -7.913)" fill="#b42a2a"/>
      <path id="Path_3231-3" data-name="Path 3231" d="M547.3,277.672c0,6.159-.2,11.152-.452,11.152s-.452-4.993-.452-11.152.2-11.152.452-11.152S547.3,271.513,547.3,277.672Z" transform="translate(-136.642 -7.913)" fill="#b42a2a"/>
      <ellipse id="Ellipse_7-3" data-name="Ellipse 7" cx="0.452" cy="11.152" rx="0.452" ry="11.152" transform="translate(376.496 258.607)" fill="#b42a2a"/>
      <path id="Path_3232-3" data-name="Path 3232" d="M407.907,277.672c0,6.159-.2,11.152-.452,11.152S407,283.831,407,277.672s.2-11.152.452-11.152S407.907,271.513,407.907,277.672Z" transform="translate(-61.916 -7.913)" fill="#b42a2a"/>
      <path id="Path_3233-3" data-name="Path 3233" d="M415.872,277.672c0,6.159-.2,11.152-.452,11.152s-.452-4.993-.452-11.152.2-11.152.452-11.152S415.872,271.513,415.872,277.672Z" transform="translate(-66.186 -7.913)" fill="#b42a2a"/>
      <ellipse id="Ellipse_8-3" data-name="Ellipse 8" cx="0.452" cy="9.224" rx="0.452" ry="9.224" transform="translate(322.915 260.536)" fill="#b42a2a"/>
      <path id="Path_3234-3" data-name="Path 3234" d="M364.1,283.513c0,4.793-.2,8.678-.452,8.678s-.452-3.886-.452-8.678.2-8.679.452-8.679S364.1,278.72,364.1,283.513Z" transform="translate(-38.43 -13.753)" fill="#b42a2a"/>
      <path id="Path_3235-3" data-name="Path 3235" d="M515.439,283.513c0,4.793-.2,8.678-.452,8.678s-.452-3.886-.452-8.678.2-8.679.452-8.679S515.439,278.72,515.439,283.513Z" transform="translate(-119.562 -13.753)" fill="#b42a2a"/>
      <ellipse id="Ellipse_9-3" data-name="Ellipse 9" cx="0.452" cy="8.679" rx="0.452" ry="8.679" transform="translate(378.344 261.081)" fill="#b42a2a"/>
      <ellipse id="Ellipse_10-3" data-name="Ellipse 10" cx="0.452" cy="8.679" rx="0.452" ry="8.679" transform="translate(335.849 261.081)" fill="#b42a2a"/>
      <path id="Path_3236-3" data-name="Path 3236" d="M467.647,283.513c0,4.793-.2,8.678-.452,8.678s-.452-3.886-.452-8.678.2-8.679.452-8.679S467.647,278.72,467.647,283.513Z" transform="translate(-93.941 -13.753)" fill="#b42a2a"/>
      <ellipse id="Ellipse_11-3" data-name="Ellipse 11" cx="0.452" cy="6.75" rx="0.452" ry="6.75" transform="translate(326.61 263.009)" fill="#b42a2a"/>
      <ellipse id="Ellipse_12-3" data-name="Ellipse 12" cx="0.452" cy="6.75" rx="0.452" ry="6.75" transform="translate(332.153 263.009)" fill="#b42a2a"/>
      <ellipse id="Ellipse_13-3" data-name="Ellipse 13" cx="0.452" cy="6.75" rx="0.452" ry="6.75" transform="translate(334.001 263.009)" fill="#b42a2a"/>
      <path id="Path_3237-3" data-name="Path 3237" d="M391.977,285.741c0,3.728-.2,6.75-.452,6.75s-.452-3.022-.452-6.75.2-6.75.452-6.75S391.977,282.013,391.977,285.741Z" transform="translate(-53.376 -15.982)" fill="#b42a2a"/>
      <ellipse id="Ellipse_14-3" data-name="Ellipse 14" cx="0.452" cy="6.75" rx="0.452" ry="6.75" transform="translate(370.953 263.009)" fill="#b42a2a"/>
      <ellipse id="Ellipse_15-3" data-name="Ellipse 15" cx="0.452" cy="6.75" rx="0.452" ry="6.75" transform="translate(374.649 263.009)" fill="#b42a2a"/>
      <path id="Path_3238-3" data-name="Path 3238" d="M459.682,285.741c0,3.728-.2,6.75-.452,6.75s-.452-3.022-.452-6.75.2-6.75.452-6.75S459.682,282.013,459.682,285.741Z" transform="translate(-89.671 -15.982)" fill="#b42a2a"/>
      <ellipse id="Ellipse_16-3" data-name="Ellipse 16" cx="0.452" cy="6.75" rx="0.452" ry="6.75" transform="translate(407.906 263.009)" fill="#b42a2a"/>
      <ellipse id="Ellipse_17-3" data-name="Ellipse 17" cx="0.452" cy="6.75" rx="0.452" ry="6.75" transform="translate(343.239 263.009)" fill="#b42a2a"/>
      <ellipse id="Ellipse_18-3" data-name="Ellipse 18" cx="0.452" cy="6.75" rx="0.452" ry="6.75" transform="translate(350.63 263.009)" fill="#b42a2a"/>
      <path id="Path_3239-3" data-name="Path 3239" d="M443.751,285.741c0,3.728-.2,6.75-.452,6.75s-.452-3.022-.452-6.75.2-6.75.452-6.75S443.751,282.013,443.751,285.741Z" transform="translate(-81.131 -15.982)" fill="#b42a2a"/>
      <path id="Path_3240-3" data-name="Path 3240" d="M519.421,285.741c0,3.728-.2,6.75-.452,6.75s-.452-3.022-.452-6.75.2-6.75.452-6.75S519.421,282.013,519.421,285.741Z" transform="translate(-121.697 -15.982)" fill="#b42a2a"/>
      <path id="Path_3241-3" data-name="Path 3241" d="M372.063,287.97c0,2.663-.2,4.822-.452,4.822s-.452-2.159-.452-4.822.2-4.822.452-4.822S372.063,285.308,372.063,287.97Z" transform="translate(-42.701 -18.211)" fill="#b42a2a"/>
      <ellipse id="Ellipse_19-3" data-name="Ellipse 19" cx="0.452" cy="4.821" rx="0.452" ry="4.821" transform="translate(367.258 264.938)" fill="#b42a2a"/>
      <ellipse id="Ellipse_20-3" data-name="Ellipse 20" cx="0.452" cy="4.821" rx="0.452" ry="4.821" transform="translate(380.192 264.938)" fill="#b42a2a"/>
      <path id="Path_3242-3" data-name="Path 3242" d="M511.456,287.97c0,2.663-.2,4.822-.452,4.822s-.452-2.159-.452-4.822.2-4.822.452-4.822S511.456,285.308,511.456,287.97Z" transform="translate(-117.426 -18.211)" fill="#b42a2a"/>
      <ellipse id="Ellipse_21-3" data-name="Ellipse 21" cx="0.452" cy="4.821" rx="0.452" ry="4.821" transform="translate(330.306 264.938)" fill="#b42a2a"/>
      <ellipse id="Ellipse_22-3" data-name="Ellipse 22" cx="0.452" cy="4.821" rx="0.452" ry="4.821" transform="translate(339.544 264.938)" fill="#b42a2a"/>
      <path id="Path_3243-3" data-name="Path 3243" d="M423.838,287.97c0,2.663-.2,4.822-.452,4.822s-.452-2.159-.452-4.822.2-4.822.452-4.822S423.838,285.308,423.838,287.97Z" transform="translate(-70.456 -18.211)" fill="#b42a2a"/>
      <ellipse id="Ellipse_23-3" data-name="Ellipse 23" cx="0.452" cy="4.821" rx="0.452" ry="4.821" transform="translate(359.868 264.938)" fill="#b42a2a"/>
      <ellipse id="Ellipse_24-3" data-name="Ellipse 24" cx="0.452" cy="4.821" rx="0.452" ry="4.821" transform="translate(356.172 264.938)" fill="#b42a2a"/>
      <path id="Path_3244-3" data-name="Path 3244" d="M539.335,287.97c0,2.663-.2,4.822-.452,4.822s-.452-2.159-.452-4.822.2-4.822.452-4.822S539.335,285.308,539.335,287.97Z" transform="translate(-132.372 -18.211)" fill="#b42a2a"/>
      <ellipse id="Ellipse_25-3" data-name="Ellipse 25" cx="0.452" cy="4.821" rx="0.452" ry="4.821" transform="translate(402.363 264.938)" fill="#b42a2a"/>
      <ellipse id="Ellipse_26-3" data-name="Ellipse 26" cx="0.452" cy="4.821" rx="0.452" ry="4.821" transform="translate(411.601 264.938)" fill="#b42a2a"/>
      <path id="Path_3245-3" data-name="Path 3245" d="M339.3,273.216c0-8.29.2-15.01.452-15.01s.452,6.72.452,15.01-.2,15.01-.452,15.01S339.3,281.5,339.3,273.216Z" transform="translate(-25.62 -3.456)" fill="#b42a2a"/>
      <ellipse id="Ellipse_27-3" data-name="Ellipse 27" cx="0.452" cy="15.01" rx="0.452" ry="15.01" transform="translate(383.887 254.75)" fill="#b42a2a"/>
      <ellipse id="Ellipse_28-3" data-name="Ellipse 28" cx="0.452" cy="13.081" rx="0.452" ry="13.081" transform="translate(358.02 256.678)" fill="#b42a2a"/>
      <ellipse id="Ellipse_29-3" data-name="Ellipse 29" cx="0.452" cy="11.152" rx="0.452" ry="11.152" transform="translate(309.982 258.607)" fill="#b42a2a"/>
      <ellipse id="Ellipse_30-3" data-name="Ellipse 30" cx="0.452" cy="8.679" rx="0.452" ry="8.679" transform="translate(306.287 261.081)" fill="#b42a2a"/>
      <ellipse id="Ellipse_31-3" data-name="Ellipse 31" cx="0.452" cy="8.679" rx="0.452" ry="8.679" transform="translate(311.829 261.081)" fill="#b42a2a"/>
      <ellipse id="Ellipse_32-3" data-name="Ellipse 32" cx="0.452" cy="8.679" rx="0.452" ry="8.679" transform="translate(319.22 261.081)" fill="#b42a2a"/>
      <path id="Path_3246-3" data-name="Path 3246" d="M319.384,285.741c0-3.728.2-6.75.452-6.75s.452,3.022.452,6.75-.2,6.75-.452,6.75S319.384,289.469,319.384,285.741Z" transform="translate(-14.945 -15.982)" fill="#b42a2a"/>
      <ellipse id="Ellipse_33-3" data-name="Ellipse 33" cx="0.452" cy="6.75" rx="0.452" ry="6.75" transform="translate(308.134 263.009)" fill="#b42a2a"/>
      <ellipse id="Ellipse_34-3" data-name="Ellipse 34" cx="0.452" cy="6.75" rx="0.452" ry="6.75" transform="translate(295.201 263.009)" fill="#b42a2a"/>
      <ellipse id="Ellipse_35-3" data-name="Ellipse 35" cx="0.452" cy="4.821" rx="0.452" ry="4.821" transform="translate(302.591 264.938)" fill="#b42a2a"/>
      <path id="Path_3247-3" data-name="Path 3247" d="M303.453,287.97c0-2.663.2-4.822.452-4.822s.452,2.159.452,4.822-.2,4.822-.452,4.822S303.453,290.633,303.453,287.97Z" transform="translate(-6.405 -18.211)" fill="#b42a2a"/>
      <path id="Path_3248-3" data-name="Path 3248" d="M311.419,290.2c0-1.6.2-2.893.452-2.893s.452,1.3.452,2.893-.2,2.893-.452,2.893S311.419,291.8,311.419,290.2Z" transform="translate(-10.675 -20.439)" fill="#b42a2a"/>
      <path id="Path_3249-3" data-name="Path 3249" d="M295.488,290.2c0-1.6.2-2.893.452-2.893s.452,1.3.452,2.893-.2,2.893-.452,2.893S295.488,291.8,295.488,290.2Z" transform="translate(-2.135 -20.439)" fill="#b42a2a"/>
      <ellipse id="Ellipse_36-3" data-name="Ellipse 36" cx="0.452" cy="2.893" rx="0.452" ry="2.893" transform="translate(291.506 266.867)" fill="#b42a2a"/>
      <path id="Path_3250-3" data-name="Path 3250" d="M307.436,290.2c0-1.6.2-2.893.452-2.893s.452,1.3.452,2.893-.2,2.893-.452,2.893S307.436,291.8,307.436,290.2Z" transform="translate(-8.54 -20.439)" fill="#b42a2a"/>
      <path id="Path_3251-3" data-name="Path 3251" d="M399.037,290.2c0-1.6.2-2.893.452-2.893s.452,1.3.452,2.893-.2,2.893-.452,2.893S399.037,291.8,399.037,290.2Z" transform="translate(-57.646 -20.439)" fill="#b42a2a"/>
      <ellipse id="Ellipse_37-3" data-name="Ellipse 37" cx="0.452" cy="2.893" rx="0.452" ry="2.893" transform="translate(354.325 266.867)" fill="#b42a2a"/>
      <ellipse id="Ellipse_38-3" data-name="Ellipse 38" cx="0.452" cy="2.893" rx="0.452" ry="2.893" transform="translate(363.563 266.867)" fill="#b42a2a"/>
      <path id="Path_3252-3" data-name="Path 3252" d="M450.812,290.2c0-1.6.2-2.893.452-2.893s.452,1.3.452,2.893-.2,2.893-.452,2.893S450.812,291.8,450.812,290.2Z" transform="translate(-85.401 -20.439)" fill="#b42a2a"/>
      <ellipse id="Ellipse_39-3" data-name="Ellipse 39" cx="0.452" cy="2.893" rx="0.452" ry="2.893" transform="translate(398.668 266.867)" fill="#b42a2a"/>
      <path id="Path_3253-3" data-name="Path 3253" d="M526.482,290.2c0-1.6.2-2.893.452-2.893s.452,1.3.452,2.893-.2,2.893-.452,2.893S526.482,291.8,526.482,290.2Z" transform="translate(-125.967 -20.439)" fill="#b42a2a"/>
      <ellipse id="Ellipse_40-3" data-name="Ellipse 40" cx="0.452" cy="2.893" rx="0.452" ry="2.893" transform="translate(404.211 266.867)" fill="#b42a2a"/>
      <ellipse id="Ellipse_41" data-name="Ellipse 41" cx="0.452" cy="6.75" rx="0.452" ry="6.75" transform="translate(374.649 263.009)" fill="#b42a2a"/>
    </g>
    <g id="Group_11" data-name="Group 11" transform="translate(151.494 780.241)">
      <ellipse id="Ellipse_4-4" data-name="Ellipse 4" cx="0.452" cy="18" rx="0.452" ry="18" transform="translate(315.525 251.759)" fill="#b42a2a"/>
      <ellipse id="Ellipse_5-4" data-name="Ellipse 5" cx="0.452" cy="18" rx="0.452" ry="18" transform="translate(387.582 251.759)" fill="#b42a2a"/>
      <path id="Path_3225-4" data-name="Path 3225" d="M348.167,273.216c0,8.289-.2,15.01-.452,15.01s-.452-6.72-.452-15.01.2-15.01.452-15.01S348.167,264.926,348.167,273.216Z" transform="translate(-29.891 -3.456)" fill="#b42a2a"/>
      <path id="Path_3226-4" data-name="Path 3226" d="M495.526,273.216c0,8.289-.2,15.01-.452,15.01s-.452-6.72-.452-15.01.2-15.01.452-15.01S495.526,264.926,495.526,273.216Z" transform="translate(-108.887 -3.456)" fill="#b42a2a"/>
      <path id="Path_3227-4" data-name="Path 3227" d="M503.491,273.216c0,8.289-.2,15.01-.452,15.01s-.452-6.72-.452-15.01.2-15.01.452-15.01S503.491,264.926,503.491,273.216Z" transform="translate(-113.156 -3.456)" fill="#b42a2a"/>
      <path id="Path_3228-4" data-name="Path 3228" d="M411.89,275.444c0,7.224-.2,13.081-.452,13.081s-.452-5.856-.452-13.081.2-13.081.452-13.081S411.89,268.219,411.89,275.444Z" transform="translate(-64.051 -5.684)" fill="#b42a2a"/>
      <path id="Path_3229-4" data-name="Path 3229" d="M356.133,277.672c0,6.159-.2,11.152-.452,11.152s-.452-4.993-.452-11.152.2-11.152.452-11.152S356.133,271.513,356.133,277.672Z" transform="translate(-34.16 -7.913)" fill="#b42a2a"/>
      <ellipse id="Ellipse_6-4" data-name="Ellipse 6" cx="0.452" cy="11.152" rx="0.452" ry="11.152" transform="translate(391.277 258.607)" fill="#b42a2a"/>
      <path id="Path_3230-4" data-name="Path 3230" d="M487.56,277.672c0,6.159-.2,11.152-.452,11.152s-.452-4.993-.452-11.152.2-11.152.452-11.152S487.56,271.513,487.56,277.672Z" transform="translate(-104.617 -7.913)" fill="#b42a2a"/>
      <path id="Path_3231-4" data-name="Path 3231" d="M547.3,277.672c0,6.159-.2,11.152-.452,11.152s-.452-4.993-.452-11.152.2-11.152.452-11.152S547.3,271.513,547.3,277.672Z" transform="translate(-136.642 -7.913)" fill="#b42a2a"/>
      <ellipse id="Ellipse_7-4" data-name="Ellipse 7" cx="0.452" cy="11.152" rx="0.452" ry="11.152" transform="translate(376.496 258.607)" fill="#b42a2a"/>
      <path id="Path_3232-4" data-name="Path 3232" d="M407.907,277.672c0,6.159-.2,11.152-.452,11.152S407,283.831,407,277.672s.2-11.152.452-11.152S407.907,271.513,407.907,277.672Z" transform="translate(-61.916 -7.913)" fill="#b42a2a"/>
      <path id="Path_3233-4" data-name="Path 3233" d="M415.872,277.672c0,6.159-.2,11.152-.452,11.152s-.452-4.993-.452-11.152.2-11.152.452-11.152S415.872,271.513,415.872,277.672Z" transform="translate(-66.186 -7.913)" fill="#b42a2a"/>
      <ellipse id="Ellipse_8-4" data-name="Ellipse 8" cx="0.452" cy="9.224" rx="0.452" ry="9.224" transform="translate(322.915 260.536)" fill="#b42a2a"/>
      <path id="Path_3234-4" data-name="Path 3234" d="M364.1,283.513c0,4.793-.2,8.678-.452,8.678s-.452-3.886-.452-8.678.2-8.679.452-8.679S364.1,278.72,364.1,283.513Z" transform="translate(-38.43 -13.753)" fill="#b42a2a"/>
      <path id="Path_3235-4" data-name="Path 3235" d="M515.439,283.513c0,4.793-.2,8.678-.452,8.678s-.452-3.886-.452-8.678.2-8.679.452-8.679S515.439,278.72,515.439,283.513Z" transform="translate(-119.562 -13.753)" fill="#b42a2a"/>
      <ellipse id="Ellipse_9-4" data-name="Ellipse 9" cx="0.452" cy="8.679" rx="0.452" ry="8.679" transform="translate(378.344 261.081)" fill="#b42a2a"/>
      <ellipse id="Ellipse_10-4" data-name="Ellipse 10" cx="0.452" cy="8.679" rx="0.452" ry="8.679" transform="translate(335.849 261.081)" fill="#b42a2a"/>
      <path id="Path_3236-4" data-name="Path 3236" d="M467.647,283.513c0,4.793-.2,8.678-.452,8.678s-.452-3.886-.452-8.678.2-8.679.452-8.679S467.647,278.72,467.647,283.513Z" transform="translate(-93.941 -13.753)" fill="#b42a2a"/>
      <ellipse id="Ellipse_11-4" data-name="Ellipse 11" cx="0.452" cy="6.75" rx="0.452" ry="6.75" transform="translate(326.61 263.009)" fill="#b42a2a"/>
      <ellipse id="Ellipse_12-4" data-name="Ellipse 12" cx="0.452" cy="6.75" rx="0.452" ry="6.75" transform="translate(332.153 263.009)" fill="#b42a2a"/>
      <ellipse id="Ellipse_13-4" data-name="Ellipse 13" cx="0.452" cy="6.75" rx="0.452" ry="6.75" transform="translate(334.001 263.009)" fill="#b42a2a"/>
      <path id="Path_3237-4" data-name="Path 3237" d="M391.977,285.741c0,3.728-.2,6.75-.452,6.75s-.452-3.022-.452-6.75.2-6.75.452-6.75S391.977,282.013,391.977,285.741Z" transform="translate(-53.376 -15.982)" fill="#b42a2a"/>
      <ellipse id="Ellipse_14-4" data-name="Ellipse 14" cx="0.452" cy="6.75" rx="0.452" ry="6.75" transform="translate(370.953 263.009)" fill="#b42a2a"/>
      <ellipse id="Ellipse_15-4" data-name="Ellipse 15" cx="0.452" cy="6.75" rx="0.452" ry="6.75" transform="translate(374.649 263.009)" fill="#b42a2a"/>
      <path id="Path_3238-4" data-name="Path 3238" d="M459.682,285.741c0,3.728-.2,6.75-.452,6.75s-.452-3.022-.452-6.75.2-6.75.452-6.75S459.682,282.013,459.682,285.741Z" transform="translate(-89.671 -15.982)" fill="#b42a2a"/>
      <ellipse id="Ellipse_16-4" data-name="Ellipse 16" cx="0.452" cy="6.75" rx="0.452" ry="6.75" transform="translate(407.906 263.009)" fill="#b42a2a"/>
      <ellipse id="Ellipse_17-4" data-name="Ellipse 17" cx="0.452" cy="6.75" rx="0.452" ry="6.75" transform="translate(343.239 263.009)" fill="#b42a2a"/>
      <ellipse id="Ellipse_18-4" data-name="Ellipse 18" cx="0.452" cy="6.75" rx="0.452" ry="6.75" transform="translate(350.63 263.009)" fill="#b42a2a"/>
      <path id="Path_3239-4" data-name="Path 3239" d="M443.751,285.741c0,3.728-.2,6.75-.452,6.75s-.452-3.022-.452-6.75.2-6.75.452-6.75S443.751,282.013,443.751,285.741Z" transform="translate(-81.131 -15.982)" fill="#b42a2a"/>
      <path id="Path_3240-4" data-name="Path 3240" d="M519.421,285.741c0,3.728-.2,6.75-.452,6.75s-.452-3.022-.452-6.75.2-6.75.452-6.75S519.421,282.013,519.421,285.741Z" transform="translate(-121.697 -15.982)" fill="#b42a2a"/>
      <path id="Path_3241-4" data-name="Path 3241" d="M372.063,287.97c0,2.663-.2,4.822-.452,4.822s-.452-2.159-.452-4.822.2-4.822.452-4.822S372.063,285.308,372.063,287.97Z" transform="translate(-42.701 -18.211)" fill="#b42a2a"/>
      <ellipse id="Ellipse_19-4" data-name="Ellipse 19" cx="0.452" cy="4.821" rx="0.452" ry="4.821" transform="translate(367.258 264.938)" fill="#b42a2a"/>
      <ellipse id="Ellipse_20-4" data-name="Ellipse 20" cx="0.452" cy="4.821" rx="0.452" ry="4.821" transform="translate(380.192 264.938)" fill="#b42a2a"/>
      <path id="Path_3242-4" data-name="Path 3242" d="M511.456,287.97c0,2.663-.2,4.822-.452,4.822s-.452-2.159-.452-4.822.2-4.822.452-4.822S511.456,285.308,511.456,287.97Z" transform="translate(-117.426 -18.211)" fill="#b42a2a"/>
      <ellipse id="Ellipse_21-4" data-name="Ellipse 21" cx="0.452" cy="4.821" rx="0.452" ry="4.821" transform="translate(330.306 264.938)" fill="#b42a2a"/>
      <ellipse id="Ellipse_22-4" data-name="Ellipse 22" cx="0.452" cy="4.821" rx="0.452" ry="4.821" transform="translate(339.544 264.938)" fill="#b42a2a"/>
      <path id="Path_3243-4" data-name="Path 3243" d="M423.838,287.97c0,2.663-.2,4.822-.452,4.822s-.452-2.159-.452-4.822.2-4.822.452-4.822S423.838,285.308,423.838,287.97Z" transform="translate(-70.456 -18.211)" fill="#b42a2a"/>
      <ellipse id="Ellipse_23-4" data-name="Ellipse 23" cx="0.452" cy="4.821" rx="0.452" ry="4.821" transform="translate(359.868 264.938)" fill="#b42a2a"/>
      <ellipse id="Ellipse_24-4" data-name="Ellipse 24" cx="0.452" cy="4.821" rx="0.452" ry="4.821" transform="translate(356.172 264.938)" fill="#b42a2a"/>
      <path id="Path_3244-4" data-name="Path 3244" d="M539.335,287.97c0,2.663-.2,4.822-.452,4.822s-.452-2.159-.452-4.822.2-4.822.452-4.822S539.335,285.308,539.335,287.97Z" transform="translate(-132.372 -18.211)" fill="#b42a2a"/>
      <ellipse id="Ellipse_25-4" data-name="Ellipse 25" cx="0.452" cy="4.821" rx="0.452" ry="4.821" transform="translate(402.363 264.938)" fill="#b42a2a"/>
      <ellipse id="Ellipse_26-4" data-name="Ellipse 26" cx="0.452" cy="4.821" rx="0.452" ry="4.821" transform="translate(411.601 264.938)" fill="#b42a2a"/>
      <path id="Path_3245-4" data-name="Path 3245" d="M339.3,273.216c0-8.29.2-15.01.452-15.01s.452,6.72.452,15.01-.2,15.01-.452,15.01S339.3,281.5,339.3,273.216Z" transform="translate(-25.62 -3.456)" fill="#b42a2a"/>
      <ellipse id="Ellipse_27-4" data-name="Ellipse 27" cx="0.452" cy="15.01" rx="0.452" ry="15.01" transform="translate(383.887 254.75)" fill="#b42a2a"/>
      <ellipse id="Ellipse_28-4" data-name="Ellipse 28" cx="0.452" cy="13.081" rx="0.452" ry="13.081" transform="translate(358.02 256.678)" fill="#b42a2a"/>
      <ellipse id="Ellipse_29-4" data-name="Ellipse 29" cx="0.452" cy="11.152" rx="0.452" ry="11.152" transform="translate(309.982 258.607)" fill="#b42a2a"/>
      <ellipse id="Ellipse_30-4" data-name="Ellipse 30" cx="0.452" cy="8.679" rx="0.452" ry="8.679" transform="translate(306.287 261.081)" fill="#b42a2a"/>
      <ellipse id="Ellipse_31-4" data-name="Ellipse 31" cx="0.452" cy="8.679" rx="0.452" ry="8.679" transform="translate(311.829 261.081)" fill="#b42a2a"/>
      <ellipse id="Ellipse_32-4" data-name="Ellipse 32" cx="0.452" cy="8.679" rx="0.452" ry="8.679" transform="translate(319.22 261.081)" fill="#b42a2a"/>
      <path id="Path_3246-4" data-name="Path 3246" d="M319.384,285.741c0-3.728.2-6.75.452-6.75s.452,3.022.452,6.75-.2,6.75-.452,6.75S319.384,289.469,319.384,285.741Z" transform="translate(-14.945 -15.982)" fill="#b42a2a"/>
      <ellipse id="Ellipse_33-4" data-name="Ellipse 33" cx="0.452" cy="6.75" rx="0.452" ry="6.75" transform="translate(308.134 263.009)" fill="#b42a2a"/>
      <ellipse id="Ellipse_34-4" data-name="Ellipse 34" cx="0.452" cy="6.75" rx="0.452" ry="6.75" transform="translate(295.201 263.009)" fill="#b42a2a"/>
      <ellipse id="Ellipse_35-4" data-name="Ellipse 35" cx="0.452" cy="4.821" rx="0.452" ry="4.821" transform="translate(302.591 264.938)" fill="#b42a2a"/>
      <path id="Path_3247-4" data-name="Path 3247" d="M303.453,287.97c0-2.663.2-4.822.452-4.822s.452,2.159.452,4.822-.2,4.822-.452,4.822S303.453,290.633,303.453,287.97Z" transform="translate(-6.405 -18.211)" fill="#b42a2a"/>
      <path id="Path_3248-4" data-name="Path 3248" d="M311.419,290.2c0-1.6.2-2.893.452-2.893s.452,1.3.452,2.893-.2,2.893-.452,2.893S311.419,291.8,311.419,290.2Z" transform="translate(-10.675 -20.439)" fill="#b42a2a"/>
      <path id="Path_3249-4" data-name="Path 3249" d="M295.488,290.2c0-1.6.2-2.893.452-2.893s.452,1.3.452,2.893-.2,2.893-.452,2.893S295.488,291.8,295.488,290.2Z" transform="translate(-2.135 -20.439)" fill="#b42a2a"/>
      <ellipse id="Ellipse_36-4" data-name="Ellipse 36" cx="0.452" cy="2.893" rx="0.452" ry="2.893" transform="translate(291.506 266.867)" fill="#b42a2a"/>
      <path id="Path_3250-4" data-name="Path 3250" d="M307.436,290.2c0-1.6.2-2.893.452-2.893s.452,1.3.452,2.893-.2,2.893-.452,2.893S307.436,291.8,307.436,290.2Z" transform="translate(-8.54 -20.439)" fill="#b42a2a"/>
      <path id="Path_3251-4" data-name="Path 3251" d="M399.037,290.2c0-1.6.2-2.893.452-2.893s.452,1.3.452,2.893-.2,2.893-.452,2.893S399.037,291.8,399.037,290.2Z" transform="translate(-57.646 -20.439)" fill="#b42a2a"/>
      <ellipse id="Ellipse_37-4" data-name="Ellipse 37" cx="0.452" cy="2.893" rx="0.452" ry="2.893" transform="translate(354.325 266.867)" fill="#b42a2a"/>
      <ellipse id="Ellipse_38-4" data-name="Ellipse 38" cx="0.452" cy="2.893" rx="0.452" ry="2.893" transform="translate(363.563 266.867)" fill="#b42a2a"/>
      <path id="Path_3252-4" data-name="Path 3252" d="M450.812,290.2c0-1.6.2-2.893.452-2.893s.452,1.3.452,2.893-.2,2.893-.452,2.893S450.812,291.8,450.812,290.2Z" transform="translate(-85.401 -20.439)" fill="#b42a2a"/>
      <ellipse id="Ellipse_39-4" data-name="Ellipse 39" cx="0.452" cy="2.893" rx="0.452" ry="2.893" transform="translate(398.668 266.867)" fill="#b42a2a"/>
      <path id="Path_3253-4" data-name="Path 3253" d="M526.482,290.2c0-1.6.2-2.893.452-2.893s.452,1.3.452,2.893-.2,2.893-.452,2.893S526.482,291.8,526.482,290.2Z" transform="translate(-125.967 -20.439)" fill="#b42a2a"/>
      <ellipse id="Ellipse_40-4" data-name="Ellipse 40" cx="0.452" cy="2.893" rx="0.452" ry="2.893" transform="translate(404.211 266.867)" fill="#b42a2a"/>
      <ellipse id="Ellipse_41-2" data-name="Ellipse 41" cx="0.452" cy="6.75" rx="0.452" ry="6.75" transform="translate(374.649 263.009)" fill="#b42a2a"/>
    </g>
    <g id="Group_12" data-name="Group 12" transform="translate(272.494 780.241)">
      <ellipse id="Ellipse_4-5" data-name="Ellipse 4" cx="0.452" cy="18" rx="0.452" ry="18" transform="translate(315.525 251.759)" fill="#b42a2a"/>
      <ellipse id="Ellipse_5-5" data-name="Ellipse 5" cx="0.452" cy="18" rx="0.452" ry="18" transform="translate(387.582 251.759)" fill="#b42a2a"/>
      <path id="Path_3225-5" data-name="Path 3225" d="M348.167,273.216c0,8.289-.2,15.01-.452,15.01s-.452-6.72-.452-15.01.2-15.01.452-15.01S348.167,264.926,348.167,273.216Z" transform="translate(-29.891 -3.456)" fill="#b42a2a"/>
      <path id="Path_3226-5" data-name="Path 3226" d="M495.526,273.216c0,8.289-.2,15.01-.452,15.01s-.452-6.72-.452-15.01.2-15.01.452-15.01S495.526,264.926,495.526,273.216Z" transform="translate(-108.887 -3.456)" fill="#b42a2a"/>
      <path id="Path_3227-5" data-name="Path 3227" d="M503.491,273.216c0,8.289-.2,15.01-.452,15.01s-.452-6.72-.452-15.01.2-15.01.452-15.01S503.491,264.926,503.491,273.216Z" transform="translate(-113.156 -3.456)" fill="#b42a2a"/>
      <path id="Path_3228-5" data-name="Path 3228" d="M411.89,275.444c0,7.224-.2,13.081-.452,13.081s-.452-5.856-.452-13.081.2-13.081.452-13.081S411.89,268.219,411.89,275.444Z" transform="translate(-64.051 -5.684)" fill="#b42a2a"/>
      <path id="Path_3229-5" data-name="Path 3229" d="M356.133,277.672c0,6.159-.2,11.152-.452,11.152s-.452-4.993-.452-11.152.2-11.152.452-11.152S356.133,271.513,356.133,277.672Z" transform="translate(-34.16 -7.913)" fill="#b42a2a"/>
      <ellipse id="Ellipse_6-5" data-name="Ellipse 6" cx="0.452" cy="11.152" rx="0.452" ry="11.152" transform="translate(391.277 258.607)" fill="#b42a2a"/>
      <path id="Path_3230-5" data-name="Path 3230" d="M487.56,277.672c0,6.159-.2,11.152-.452,11.152s-.452-4.993-.452-11.152.2-11.152.452-11.152S487.56,271.513,487.56,277.672Z" transform="translate(-104.617 -7.913)" fill="#b42a2a"/>
      <path id="Path_3231-5" data-name="Path 3231" d="M547.3,277.672c0,6.159-.2,11.152-.452,11.152s-.452-4.993-.452-11.152.2-11.152.452-11.152S547.3,271.513,547.3,277.672Z" transform="translate(-136.642 -7.913)" fill="#b42a2a"/>
      <ellipse id="Ellipse_7-5" data-name="Ellipse 7" cx="0.452" cy="11.152" rx="0.452" ry="11.152" transform="translate(376.496 258.607)" fill="#b42a2a"/>
      <path id="Path_3232-5" data-name="Path 3232" d="M407.907,277.672c0,6.159-.2,11.152-.452,11.152S407,283.831,407,277.672s.2-11.152.452-11.152S407.907,271.513,407.907,277.672Z" transform="translate(-61.916 -7.913)" fill="#b42a2a"/>
      <path id="Path_3233-5" data-name="Path 3233" d="M415.872,277.672c0,6.159-.2,11.152-.452,11.152s-.452-4.993-.452-11.152.2-11.152.452-11.152S415.872,271.513,415.872,277.672Z" transform="translate(-66.186 -7.913)" fill="#b42a2a"/>
      <ellipse id="Ellipse_8-5" data-name="Ellipse 8" cx="0.452" cy="9.224" rx="0.452" ry="9.224" transform="translate(322.915 260.536)" fill="#b42a2a"/>
      <path id="Path_3234-5" data-name="Path 3234" d="M364.1,283.513c0,4.793-.2,8.678-.452,8.678s-.452-3.886-.452-8.678.2-8.679.452-8.679S364.1,278.72,364.1,283.513Z" transform="translate(-38.43 -13.753)" fill="#b42a2a"/>
      <path id="Path_3235-5" data-name="Path 3235" d="M515.439,283.513c0,4.793-.2,8.678-.452,8.678s-.452-3.886-.452-8.678.2-8.679.452-8.679S515.439,278.72,515.439,283.513Z" transform="translate(-119.562 -13.753)" fill="#b42a2a"/>
      <ellipse id="Ellipse_9-5" data-name="Ellipse 9" cx="0.452" cy="8.679" rx="0.452" ry="8.679" transform="translate(378.344 261.081)" fill="#b42a2a"/>
      <ellipse id="Ellipse_10-5" data-name="Ellipse 10" cx="0.452" cy="8.679" rx="0.452" ry="8.679" transform="translate(335.849 261.081)" fill="#b42a2a"/>
      <path id="Path_3236-5" data-name="Path 3236" d="M467.647,283.513c0,4.793-.2,8.678-.452,8.678s-.452-3.886-.452-8.678.2-8.679.452-8.679S467.647,278.72,467.647,283.513Z" transform="translate(-93.941 -13.753)" fill="#b42a2a"/>
      <ellipse id="Ellipse_11-5" data-name="Ellipse 11" cx="0.452" cy="6.75" rx="0.452" ry="6.75" transform="translate(326.61 263.009)" fill="#b42a2a"/>
      <ellipse id="Ellipse_12-5" data-name="Ellipse 12" cx="0.452" cy="6.75" rx="0.452" ry="6.75" transform="translate(332.153 263.009)" fill="#b42a2a"/>
      <ellipse id="Ellipse_13-5" data-name="Ellipse 13" cx="0.452" cy="6.75" rx="0.452" ry="6.75" transform="translate(334.001 263.009)" fill="#b42a2a"/>
      <path id="Path_3237-5" data-name="Path 3237" d="M391.977,285.741c0,3.728-.2,6.75-.452,6.75s-.452-3.022-.452-6.75.2-6.75.452-6.75S391.977,282.013,391.977,285.741Z" transform="translate(-53.376 -15.982)" fill="#b42a2a"/>
      <ellipse id="Ellipse_14-5" data-name="Ellipse 14" cx="0.452" cy="6.75" rx="0.452" ry="6.75" transform="translate(370.953 263.009)" fill="#b42a2a"/>
      <ellipse id="Ellipse_15-5" data-name="Ellipse 15" cx="0.452" cy="6.75" rx="0.452" ry="6.75" transform="translate(374.649 263.009)" fill="#b42a2a"/>
      <path id="Path_3238-5" data-name="Path 3238" d="M459.682,285.741c0,3.728-.2,6.75-.452,6.75s-.452-3.022-.452-6.75.2-6.75.452-6.75S459.682,282.013,459.682,285.741Z" transform="translate(-89.671 -15.982)" fill="#b42a2a"/>
      <ellipse id="Ellipse_16-5" data-name="Ellipse 16" cx="0.452" cy="6.75" rx="0.452" ry="6.75" transform="translate(407.906 263.009)" fill="#b42a2a"/>
      <ellipse id="Ellipse_17-5" data-name="Ellipse 17" cx="0.452" cy="6.75" rx="0.452" ry="6.75" transform="translate(343.239 263.009)" fill="#b42a2a"/>
      <ellipse id="Ellipse_18-5" data-name="Ellipse 18" cx="0.452" cy="6.75" rx="0.452" ry="6.75" transform="translate(350.63 263.009)" fill="#b42a2a"/>
      <path id="Path_3239-5" data-name="Path 3239" d="M443.751,285.741c0,3.728-.2,6.75-.452,6.75s-.452-3.022-.452-6.75.2-6.75.452-6.75S443.751,282.013,443.751,285.741Z" transform="translate(-81.131 -15.982)" fill="#b42a2a"/>
      <path id="Path_3240-5" data-name="Path 3240" d="M519.421,285.741c0,3.728-.2,6.75-.452,6.75s-.452-3.022-.452-6.75.2-6.75.452-6.75S519.421,282.013,519.421,285.741Z" transform="translate(-121.697 -15.982)" fill="#b42a2a"/>
      <path id="Path_3241-5" data-name="Path 3241" d="M372.063,287.97c0,2.663-.2,4.822-.452,4.822s-.452-2.159-.452-4.822.2-4.822.452-4.822S372.063,285.308,372.063,287.97Z" transform="translate(-42.701 -18.211)" fill="#b42a2a"/>
      <ellipse id="Ellipse_19-5" data-name="Ellipse 19" cx="0.452" cy="4.821" rx="0.452" ry="4.821" transform="translate(367.258 264.938)" fill="#b42a2a"/>
      <ellipse id="Ellipse_20-5" data-name="Ellipse 20" cx="0.452" cy="4.821" rx="0.452" ry="4.821" transform="translate(380.192 264.938)" fill="#b42a2a"/>
      <path id="Path_3242-5" data-name="Path 3242" d="M511.456,287.97c0,2.663-.2,4.822-.452,4.822s-.452-2.159-.452-4.822.2-4.822.452-4.822S511.456,285.308,511.456,287.97Z" transform="translate(-117.426 -18.211)" fill="#b42a2a"/>
      <ellipse id="Ellipse_21-5" data-name="Ellipse 21" cx="0.452" cy="4.821" rx="0.452" ry="4.821" transform="translate(330.306 264.938)" fill="#b42a2a"/>
      <ellipse id="Ellipse_22-5" data-name="Ellipse 22" cx="0.452" cy="4.821" rx="0.452" ry="4.821" transform="translate(339.544 264.938)" fill="#b42a2a"/>
      <path id="Path_3243-5" data-name="Path 3243" d="M423.838,287.97c0,2.663-.2,4.822-.452,4.822s-.452-2.159-.452-4.822.2-4.822.452-4.822S423.838,285.308,423.838,287.97Z" transform="translate(-70.456 -18.211)" fill="#b42a2a"/>
      <ellipse id="Ellipse_23-5" data-name="Ellipse 23" cx="0.452" cy="4.821" rx="0.452" ry="4.821" transform="translate(359.868 264.938)" fill="#b42a2a"/>
      <ellipse id="Ellipse_24-5" data-name="Ellipse 24" cx="0.452" cy="4.821" rx="0.452" ry="4.821" transform="translate(356.172 264.938)" fill="#b42a2a"/>
      <path id="Path_3244-5" data-name="Path 3244" d="M539.335,287.97c0,2.663-.2,4.822-.452,4.822s-.452-2.159-.452-4.822.2-4.822.452-4.822S539.335,285.308,539.335,287.97Z" transform="translate(-132.372 -18.211)" fill="#b42a2a"/>
      <ellipse id="Ellipse_25-5" data-name="Ellipse 25" cx="0.452" cy="4.821" rx="0.452" ry="4.821" transform="translate(402.363 264.938)" fill="#b42a2a"/>
      <ellipse id="Ellipse_26-5" data-name="Ellipse 26" cx="0.452" cy="4.821" rx="0.452" ry="4.821" transform="translate(411.601 264.938)" fill="#b42a2a"/>
      <path id="Path_3245-5" data-name="Path 3245" d="M339.3,273.216c0-8.29.2-15.01.452-15.01s.452,6.72.452,15.01-.2,15.01-.452,15.01S339.3,281.5,339.3,273.216Z" transform="translate(-25.62 -3.456)" fill="#b42a2a"/>
      <ellipse id="Ellipse_27-5" data-name="Ellipse 27" cx="0.452" cy="15.01" rx="0.452" ry="15.01" transform="translate(383.887 254.75)" fill="#b42a2a"/>
      <ellipse id="Ellipse_28-5" data-name="Ellipse 28" cx="0.452" cy="13.081" rx="0.452" ry="13.081" transform="translate(358.02 256.678)" fill="#b42a2a"/>
      <ellipse id="Ellipse_29-5" data-name="Ellipse 29" cx="0.452" cy="11.152" rx="0.452" ry="11.152" transform="translate(309.982 258.607)" fill="#b42a2a"/>
      <ellipse id="Ellipse_30-5" data-name="Ellipse 30" cx="0.452" cy="8.679" rx="0.452" ry="8.679" transform="translate(306.287 261.081)" fill="#b42a2a"/>
      <ellipse id="Ellipse_31-5" data-name="Ellipse 31" cx="0.452" cy="8.679" rx="0.452" ry="8.679" transform="translate(311.829 261.081)" fill="#b42a2a"/>
      <ellipse id="Ellipse_32-5" data-name="Ellipse 32" cx="0.452" cy="8.679" rx="0.452" ry="8.679" transform="translate(319.22 261.081)" fill="#b42a2a"/>
      <path id="Path_3246-5" data-name="Path 3246" d="M319.384,285.741c0-3.728.2-6.75.452-6.75s.452,3.022.452,6.75-.2,6.75-.452,6.75S319.384,289.469,319.384,285.741Z" transform="translate(-14.945 -15.982)" fill="#b42a2a"/>
      <ellipse id="Ellipse_33-5" data-name="Ellipse 33" cx="0.452" cy="6.75" rx="0.452" ry="6.75" transform="translate(308.134 263.009)" fill="#b42a2a"/>
      <ellipse id="Ellipse_34-5" data-name="Ellipse 34" cx="0.452" cy="6.75" rx="0.452" ry="6.75" transform="translate(295.201 263.009)" fill="#b42a2a"/>
      <ellipse id="Ellipse_35-5" data-name="Ellipse 35" cx="0.452" cy="4.821" rx="0.452" ry="4.821" transform="translate(302.591 264.938)" fill="#b42a2a"/>
      <path id="Path_3247-5" data-name="Path 3247" d="M303.453,287.97c0-2.663.2-4.822.452-4.822s.452,2.159.452,4.822-.2,4.822-.452,4.822S303.453,290.633,303.453,287.97Z" transform="translate(-6.405 -18.211)" fill="#b42a2a"/>
      <path id="Path_3248-5" data-name="Path 3248" d="M311.419,290.2c0-1.6.2-2.893.452-2.893s.452,1.3.452,2.893-.2,2.893-.452,2.893S311.419,291.8,311.419,290.2Z" transform="translate(-10.675 -20.439)" fill="#b42a2a"/>
      <path id="Path_3249-5" data-name="Path 3249" d="M295.488,290.2c0-1.6.2-2.893.452-2.893s.452,1.3.452,2.893-.2,2.893-.452,2.893S295.488,291.8,295.488,290.2Z" transform="translate(-2.135 -20.439)" fill="#b42a2a"/>
      <ellipse id="Ellipse_36-5" data-name="Ellipse 36" cx="0.452" cy="2.893" rx="0.452" ry="2.893" transform="translate(291.506 266.867)" fill="#b42a2a"/>
      <path id="Path_3250-5" data-name="Path 3250" d="M307.436,290.2c0-1.6.2-2.893.452-2.893s.452,1.3.452,2.893-.2,2.893-.452,2.893S307.436,291.8,307.436,290.2Z" transform="translate(-8.54 -20.439)" fill="#b42a2a"/>
      <path id="Path_3251-5" data-name="Path 3251" d="M399.037,290.2c0-1.6.2-2.893.452-2.893s.452,1.3.452,2.893-.2,2.893-.452,2.893S399.037,291.8,399.037,290.2Z" transform="translate(-57.646 -20.439)" fill="#b42a2a"/>
      <ellipse id="Ellipse_37-5" data-name="Ellipse 37" cx="0.452" cy="2.893" rx="0.452" ry="2.893" transform="translate(354.325 266.867)" fill="#b42a2a"/>
      <ellipse id="Ellipse_38-5" data-name="Ellipse 38" cx="0.452" cy="2.893" rx="0.452" ry="2.893" transform="translate(363.563 266.867)" fill="#b42a2a"/>
      <path id="Path_3252-5" data-name="Path 3252" d="M450.812,290.2c0-1.6.2-2.893.452-2.893s.452,1.3.452,2.893-.2,2.893-.452,2.893S450.812,291.8,450.812,290.2Z" transform="translate(-85.401 -20.439)" fill="#b42a2a"/>
      <ellipse id="Ellipse_39-5" data-name="Ellipse 39" cx="0.452" cy="2.893" rx="0.452" ry="2.893" transform="translate(398.668 266.867)" fill="#b42a2a"/>
      <path id="Path_3253-5" data-name="Path 3253" d="M526.482,290.2c0-1.6.2-2.893.452-2.893s.452,1.3.452,2.893-.2,2.893-.452,2.893S526.482,291.8,526.482,290.2Z" transform="translate(-125.967 -20.439)" fill="#b42a2a"/>
      <ellipse id="Ellipse_40-5" data-name="Ellipse 40" cx="0.452" cy="2.893" rx="0.452" ry="2.893" transform="translate(404.211 266.867)" fill="#b42a2a"/>
      <ellipse id="Ellipse_41-3" data-name="Ellipse 41" cx="0.452" cy="6.75" rx="0.452" ry="6.75" transform="translate(374.649 263.009)" fill="#b42a2a"/>
    </g>
    <g id="Group_13" data-name="Group 13" transform="translate(393.494 780.393)">
      <ellipse id="Ellipse_29-6" data-name="Ellipse 29" cx="0.452" cy="11.152" rx="0.452" ry="11.152" transform="translate(309.982 258.607)" fill="#b42a2a"/>
      <ellipse id="Ellipse_30-6" data-name="Ellipse 30" cx="0.452" cy="8.679" rx="0.452" ry="8.679" transform="translate(306.287 261.081)" fill="#b42a2a"/>
      <path id="Path_3246-6" data-name="Path 3246" d="M319.384,285.741c0-3.728.2-6.75.452-6.75s.452,3.022.452,6.75-.2,6.75-.452,6.75S319.384,289.469,319.384,285.741Z" transform="translate(-14.945 -15.982)" fill="#b42a2a"/>
      <ellipse id="Ellipse_33-6" data-name="Ellipse 33" cx="0.452" cy="6.75" rx="0.452" ry="6.75" transform="translate(308.134 263.009)" fill="#b42a2a"/>
      <ellipse id="Ellipse_34-6" data-name="Ellipse 34" cx="0.452" cy="6.75" rx="0.452" ry="6.75" transform="translate(295.201 263.009)" fill="#b42a2a"/>
      <ellipse id="Ellipse_35-6" data-name="Ellipse 35" cx="0.452" cy="4.821" rx="0.452" ry="4.821" transform="translate(302.591 264.938)" fill="#b42a2a"/>
      <path id="Path_3247-6" data-name="Path 3247" d="M303.453,287.97c0-2.663.2-4.822.452-4.822s.452,2.159.452,4.822-.2,4.822-.452,4.822S303.453,290.633,303.453,287.97Z" transform="translate(-6.405 -18.211)" fill="#b42a2a"/>
      <path id="Path_3248-6" data-name="Path 3248" d="M311.419,290.2c0-1.6.2-2.893.452-2.893s.452,1.3.452,2.893-.2,2.893-.452,2.893S311.419,291.8,311.419,290.2Z" transform="translate(-10.675 -20.439)" fill="#b42a2a"/>
      <path id="Path_3249-6" data-name="Path 3249" d="M295.488,290.2c0-1.6.2-2.893.452-2.893s.452,1.3.452,2.893-.2,2.893-.452,2.893S295.488,291.8,295.488,290.2Z" transform="translate(-2.135 -20.439)" fill="#b42a2a"/>
      <ellipse id="Ellipse_36-6" data-name="Ellipse 36" cx="0.452" cy="2.893" rx="0.452" ry="2.893" transform="translate(291.506 266.867)" fill="#b42a2a"/>
      <path id="Path_3250-6" data-name="Path 3250" d="M307.436,290.2c0-1.6.2-2.893.452-2.893s.452,1.3.452,2.893-.2,2.893-.452,2.893S307.436,291.8,307.436,290.2Z" transform="translate(-8.54 -20.439)" fill="#b42a2a"/>
    </g>
  </g>
</svg>
